<svg width="18" height="18" viewBox="0 0 22 22" fill="none" xmlns="http://www.w3.org/2000/svg">
<path d="M5 11C5 12.1046 4.10457 13 3 13C1.89543 13 1 12.1046 1 11C1 9.89543 1.89543 9 3 9C4.10457 9 5 9.89543 5 11Z" stroke="#403F48" stroke-width="1.5"/>
<path d="M13 11C13 12.1046 12.1046 13 11 13C9.89544 13 9 12.1046 9 11C9 9.89543 9.89544 9 11 9C12.1046 9 13 9.89543 13 11Z" stroke="#403F48" stroke-width="1.5"/>
<path d="M21 11C21 12.1046 20.1046 13 19 13C17.8954 13 17 12.1046 17 11C17 9.89543 17.8954 9 19 9C20.1046 9 21 9.89543 21 11Z" stroke="#403F48" stroke-width="1.5"/>
<path d="M5 3C5 4.10457 4.10457 5 3 5C1.89543 5 1 4.10457 1 3C1 1.89543 1.89543 1 3 1C4.10457 1 5 1.89543 5 3Z" stroke="#403F48" stroke-width="1.5"/>
<path d="M13 3C13 4.10457 12.1046 5 11 5C9.89544 5 9.00001 4.10457 9.00001 3C9.00001 1.89543 9.89544 1 11 1C12.1046 1 13 1.89543 13 3Z" stroke="#403F48" stroke-width="1.5"/>
<path d="M21 3C21 4.10457 20.1046 5 19 5C17.8954 5 17 4.10457 17 3C17 1.89543 17.8954 1 19 1C20.1046 1 21 1.89543 21 3Z" stroke="#403F48" stroke-width="1.5"/>
<path d="M5 19C5 20.1046 4.10457 21 3 21C1.89543 21 1 20.1046 1 19C1 17.8954 1.89543 17 3 17C4.10457 17 5 17.8954 5 19Z" stroke="#403F48" stroke-width="1.5"/>
<path d="M13 19C13 20.1046 12.1046 21 11 21C9.89544 21 9.00001 20.1046 9.00001 19C9.00001 17.8954 9.89544 17 11 17C12.1046 17 13 17.8954 13 19Z" stroke="#403F48" stroke-width="1.5"/>
<path d="M21 19C21 20.1046 20.1046 21 19 21C17.8954 21 17 20.1046 17 19C17 17.8954 17.8954 17 19 17C20.1046 17 21 17.8954 21 19Z" stroke="#403F48" stroke-width="1.5"/>
</svg>
